<svg width="29" height="25" viewBox="0 0 29 25" fill="none" xmlns="http://www.w3.org/2000/svg">
<path d="M14.5043 24.3636L2.82244 12.6818C1.89063 11.75 1.26941 10.6667 0.958807 9.43182C0.655777 8.19697 0.659564 6.9697 0.97017 5.75C1.28078 4.52273 1.8982 3.45454 2.82244 2.54545C3.76941 1.61364 4.84896 0.996211 6.06108 0.693182C7.28078 0.382575 8.49669 0.382575 9.70881 0.693182C10.9285 1.00379 12.0118 1.62121 12.9588 2.54545L14.5043 4.04545L16.0497 2.54545C17.0043 1.62121 18.0876 1.00379 19.2997 0.693182C20.5118 0.382575 21.724 0.382575 22.9361 0.693182C24.1558 0.996211 25.2391 1.61364 26.1861 2.54545C27.1103 3.45454 27.7277 4.52273 28.0384 5.75C28.349 6.9697 28.349 8.19697 28.0384 9.43182C27.7353 10.6667 27.1179 11.75 26.1861 12.6818L14.5043 24.3636Z" fill="white"/>
</svg>
